<svg width="22" height="25" viewBox="0 0 22 25" fill="none" xmlns="http://www.w3.org/2000/svg">
<path d="M14.3536 20.7449C14.8355 20.7449 15.1969 21.2023 15.0922 21.681C14.6731 23.5798 13.0022 24.9999 11.0012 24.9999C9.00027 24.9999 7.33456 23.5798 6.91027 21.681C6.80551 21.2023 7.16694 20.7449 7.64884 20.7449H14.3484H14.3536Z" fill="#FF8C08"/>
<path d="M20.4286 16.5138V10.6366C20.4286 5.34976 16.2067 1.06287 11 1.06287C5.79333 1.06287 1.57143 5.34976 1.57143 10.6366V16.5138C0.68619 16.6414 0 17.4126 0 18.3487C0 19.3752 0.822381 20.2103 1.83333 20.2103H20.1667C21.1776 20.2103 22 19.3752 22 18.3487C22 17.4126 21.3138 16.6414 20.4286 16.5138Z" fill="#FF8C08"/>
<path d="M11.0006 6.10352e-05C10.1311 6.10352e-05 9.4292 0.71277 9.4292 1.59568H12.5721C12.5721 0.71277 11.8702 6.10352e-05 11.0006 6.10352e-05Z" fill="#FF8C08"/>
<path d="M14.3536 20.7449C14.8355 20.7449 15.1969 21.2023 15.0922 21.681C14.6731 23.5798 13.0022 24.9999 11.0012 24.9999C9.00027 24.9999 7.33456 23.5798 6.91027 21.681C6.80551 21.2023 7.16694 20.7449 7.64884 20.7449H14.3484H14.3536Z" fill="#FF8C08"/>
<path d="M20.4286 16.5138V10.6366C20.4286 5.34976 16.2067 1.06287 11 1.06287C5.79333 1.06287 1.57143 5.34976 1.57143 10.6366V16.5138C0.68619 16.6414 0 17.4126 0 18.3487C0 19.3752 0.822381 20.2103 1.83333 20.2103H20.1667C21.1776 20.2103 22 19.3752 22 18.3487C22 17.4126 21.3138 16.6414 20.4286 16.5138Z" fill="#FF8C08"/>
<path d="M11.0006 6.10352e-05C10.1311 6.10352e-05 9.4292 0.71277 9.4292 1.59568H12.5721C12.5721 0.71277 11.8702 6.10352e-05 11.0006 6.10352e-05Z" fill="#FF8C08"/>
<path d="M14.3536 20.7449C14.8355 20.7449 15.1969 21.2023 15.0922 21.681C14.6731 23.5798 13.0022 24.9999 11.0012 24.9999C9.00027 24.9999 7.33456 23.5798 6.91027 21.681C6.80551 21.2023 7.16694 20.7449 7.64884 20.7449H14.3484H14.3536Z" fill="#FF8C08"/>
</svg>
