<svg width="152" height="152" viewBox="0 0 152 152" fill="none" xmlns="http://www.w3.org/2000/svg">
<path fill-rule="evenodd" clip-rule="evenodd" d="M137.407 48.927C143.254 55.1319 142.964 64.9021 136.759 70.7493L66.2126 137.228C60.0786 143.008 50.4421 142.8 44.5632 136.761L14.8104 106.194C8.86352 100.085 8.99534 90.3113 15.1048 84.3644C21.2143 78.4176 30.9879 78.5494 36.9348 84.6589L56.0928 104.341L115.585 48.2791C121.79 42.432 131.56 42.722 137.407 48.927Z" fill="#C88B5D"/>
<path fill-rule="evenodd" clip-rule="evenodd" d="M137.407 48.927C143.254 55.1319 142.964 64.9021 136.759 70.7493L66.2126 137.228C60.0786 143.008 50.4421 142.8 44.5632 136.761L14.8104 106.194C8.86352 100.085 8.99534 90.3113 15.1048 84.3644C21.2143 78.4176 30.9879 78.5494 36.9348 84.6589L56.0928 104.341L115.585 48.2791C121.79 42.432 131.56 42.722 137.407 48.927Z" fill="url(#paint0_linear_16_4694)"/>
<path fill-rule="evenodd" clip-rule="evenodd" d="M137.407 48.927C143.254 55.1319 142.964 64.9021 136.759 70.7493L66.2126 137.228C60.0786 143.008 50.4421 142.8 44.5632 136.761L14.8104 106.194C8.86352 100.085 8.99534 90.3113 15.1048 84.3644C21.2143 78.4176 30.9879 78.5494 36.9348 84.6589L56.0928 104.341L115.585 48.2791C121.79 42.432 131.56 42.722 137.407 48.927Z" fill="url(#paint1_radial_16_4694)"/>
<path fill-rule="evenodd" clip-rule="evenodd" d="M137.407 48.927C143.254 55.1319 142.964 64.9021 136.759 70.7493L66.2126 137.228C60.0786 143.008 50.4421 142.8 44.5632 136.761L14.8104 106.194C8.86352 100.085 8.99534 90.3113 15.1048 84.3644C21.2143 78.4176 30.9879 78.5494 36.9348 84.6589L56.0928 104.341L115.585 48.2791C121.79 42.432 131.56 42.722 137.407 48.927Z" fill="url(#paint2_radial_16_4694)" fill-opacity="0.8"/>
<path d="M115.584 48.2793C121.789 42.4322 131.56 42.722 137.407 48.9268C143.254 55.1317 142.964 64.9019 136.759 70.7491L66.2124 137.229C63.3076 139.966 59.6172 141.359 55.9126 141.427V104.155L56.0923 104.341L115.584 48.2793Z" fill="url(#paint3_linear_16_4694)"/>
<path d="M115.584 48.2793C121.789 42.4322 131.56 42.722 137.407 48.9268C143.254 55.1317 142.964 64.9019 136.759 70.7491L66.2124 137.229C63.3076 139.966 59.6172 141.359 55.9126 141.427V104.155L56.0923 104.341L115.584 48.2793Z" fill="url(#paint4_radial_16_4694)"/>
<path d="M115.584 48.2793C121.789 42.4322 131.56 42.722 137.407 48.9268C143.254 55.1317 142.964 64.9019 136.759 70.7491L66.2124 137.229C63.3076 139.966 59.6172 141.359 55.9126 141.427V104.155L56.0923 104.341L115.584 48.2793Z" fill="url(#paint5_radial_16_4694)"/>
<path d="M115.584 48.2793C121.789 42.4322 131.56 42.722 137.407 48.9268C143.254 55.1317 142.964 64.9019 136.759 70.7491L66.2124 137.229C63.3076 139.966 59.6172 141.359 55.9126 141.427V104.155L56.0923 104.341L115.584 48.2793Z" fill="url(#paint6_radial_16_4694)"/>
<path d="M115.584 48.2793C121.789 42.4322 131.56 42.722 137.407 48.9268C143.254 55.1317 142.964 64.9019 136.759 70.7491L66.2124 137.229C63.3076 139.966 59.6172 141.359 55.9126 141.427V104.155L56.0923 104.341L115.584 48.2793Z" fill="url(#paint7_radial_16_4694)" fill-opacity="0.8"/>
<defs>
<linearGradient id="paint0_linear_16_4694" x1="50.9175" y1="96.8459" x2="27.4807" y2="120.283" gradientUnits="userSpaceOnUse">
<stop stop-color="#988258"/>
<stop offset="0.198744" stop-color="#CFB28C"/>
<stop offset="0.290502" stop-color="#CFB28C"/>
<stop offset="0.361715" stop-color="#CFAB8C"/>
<stop offset="0.522977" stop-color="#C19A66"/>
<stop offset="0.818118" stop-color="#EC8C42"/>
<stop offset="1" stop-color="#BE7035"/>
</linearGradient>
<radialGradient id="paint1_radial_16_4694" cx="0" cy="0" r="1" gradientUnits="userSpaceOnUse" gradientTransform="translate(43.2594 111.406) rotate(47.1984) scale(48.219 48.219)">
<stop offset="0.568763" stop-color="#6A4E36" stop-opacity="0"/>
<stop offset="0.862826" stop-color="#6A4E36"/>
</radialGradient>
<radialGradient id="paint2_radial_16_4694" cx="0" cy="0" r="1" gradientUnits="userSpaceOnUse" gradientTransform="translate(57.036 132.089) rotate(-90) scale(9.55765 12.8615)">
<stop offset="0.0961684" stop-color="#FEAF47"/>
<stop offset="0.846473" stop-color="#FEAF47" stop-opacity="0"/>
</radialGradient>
<linearGradient id="paint3_linear_16_4694" x1="72.9322" y1="85.2657" x2="98.7607" y2="112.651" gradientUnits="userSpaceOnUse">
<stop stop-color="#764F3B"/>
<stop offset="0.266006" stop-color="#A97B5E"/>
<stop offset="0.522977" stop-color="#C19466"/>
<stop offset="0.735806" stop-color="#D88B50"/>
<stop offset="0.894873" stop-color="#BE7535"/>
</linearGradient>
<radialGradient id="paint4_radial_16_4694" cx="0" cy="0" r="1" gradientUnits="userSpaceOnUse" gradientTransform="translate(132.759 52.5874) rotate(-54.1045) scale(15.0953 15.0954)">
<stop offset="0.1767" stop-color="#D8B298"/>
<stop offset="1" stop-color="#D3A08C" stop-opacity="0"/>
</radialGradient>
<radialGradient id="paint5_radial_16_4694" cx="0" cy="0" r="1" gradientUnits="userSpaceOnUse" gradientTransform="translate(53.8893 115.151) rotate(90) scale(14.383 9.88837)">
<stop offset="0.366279" stop-color="#CFB08C"/>
<stop offset="1" stop-color="#B59E63" stop-opacity="0"/>
</radialGradient>
<radialGradient id="paint6_radial_16_4694" cx="0" cy="0" r="1" gradientUnits="userSpaceOnUse" gradientTransform="translate(92.6854 115.047) rotate(89.4242) scale(103.539 91.9856)">
<stop offset="0.568763" stop-color="#6A4A36" stop-opacity="0"/>
<stop offset="0.862826" stop-color="#6A4A36"/>
</radialGradient>
<radialGradient id="paint7_radial_16_4694" cx="0" cy="0" r="1" gradientUnits="userSpaceOnUse" gradientTransform="translate(55.9126 131.578) rotate(-90) scale(10.3483 12.8686)">
<stop offset="0.0961684" stop-color="#FEA347"/>
<stop offset="0.846473" stop-color="#FEA347" stop-opacity="0"/>
</radialGradient>
</defs>
</svg>
