<svg width="96" height="56" viewBox="0 0 96 56" fill="none" xmlns="http://www.w3.org/2000/svg">
<g clip-path="url(#clip0_93_4962)">
<path d="M25.6398 6.24076C28.2237 10.1454 29.5156 16.0858 29.5156 24.0286C29.5156 31.9714 28.2237 37.9118 25.6398 41.8164C23.056 45.7211 19.4121 47.6901 14.7744 47.6901C10.1367 47.6901 6.52596 45.7211 3.94211 41.8164C1.32513 37.9118 0.0332031 31.9714 0.0332031 24.0286C0.0332031 16.0858 1.292 10.1454 3.90898 6.24076C6.52596 2.33611 10.1367 0.400477 14.7744 0.400477C19.4121 0.400477 23.056 2.36949 25.6398 6.27414V6.24076ZM10.1698 24.0286C10.1698 29.0012 10.5674 32.472 11.3955 34.5411C12.2237 36.6103 13.35 37.6114 14.7413 37.6114C16.1326 37.6114 17.2589 36.5769 18.087 34.5411C18.9152 32.5054 19.3127 29.0012 19.3127 24.0286C19.3127 14.9845 17.7889 10.4458 14.7413 10.4458C11.6937 10.4458 10.1698 14.9845 10.1698 24.0286ZM33.8551 46.5554V2.66985C33.8551 1.20143 35.0477 0 36.5053 0H41.5404C42.998 0 44.1906 1.20143 44.1906 2.66985V46.522C44.1906 47.9905 42.998 49.1919 41.5404 49.1919H36.5053C35.0477 49.1919 33.8551 47.9905 33.8551 46.522V46.5554Z" fill="#F68C1F"/>
<path d="M60.9523 38.0787V46.3552C60.3561 46.6222 59.5279 46.789 58.4347 46.9225C57.3416 47.056 56.2815 47.1228 55.2215 47.1228H52.1076C50.6501 47.1228 49.4575 45.9213 49.4575 44.4529V3.63766C49.4575 2.16925 50.6501 0.967819 52.1076 0.967819H58.236C59.6935 0.967819 60.8861 2.16925 60.8861 3.63766V9.61144H58.3354V38.4458H58.8985C59.0973 38.4458 59.7929 38.3123 60.9192 38.0453L60.9523 38.0787ZM73.4741 38.2122C74.236 38.0453 74.8985 37.845 75.4617 37.6448V44.1192C75.4617 45.354 74.6335 46.4887 73.441 46.7223C72.1822 46.9893 70.6583 47.1228 68.8364 47.1228H64.9938C63.5362 47.1228 62.3436 45.9213 62.3436 44.4529V3.63766C62.3436 2.16925 63.5362 0.967819 64.9938 0.967819H71.6853C73.1428 0.967819 74.3354 2.16925 74.3354 3.63766V9.61144H71.1552V38.4458H71.4202C72.0165 38.4458 72.679 38.3456 73.441 38.1788L73.4741 38.2122ZM90.0704 49.2253H89.8716C88.414 49.2253 87.2215 48.0238 87.2215 46.5554V27.9666H85.3664V45.7211C85.3664 47.1895 84.1739 48.3909 82.7163 48.3909H79.2049C77.7474 48.3909 76.5548 47.1895 76.5548 45.7211V2.87008C76.5548 1.40167 77.7474 0.200238 79.2049 0.200238H82.7163C84.1739 0.200238 85.3664 1.40167 85.3664 2.87008V17.5542H87.2215V2.66984C87.2215 1.20143 88.414 0 89.8716 0H93.3167C94.8737 0 96.0993 1.33492 95.9668 2.87008L92.7205 46.7223C92.6211 48.124 91.4617 49.1919 90.0704 49.1919V49.2253Z" fill="#F68C1F"/>
<path d="M89.9047 50.627H89.8715C88.4079 50.627 87.2214 51.8223 87.2214 53.2968V53.3302C87.2214 54.8047 88.4079 56 89.8715 56H89.9047C91.3683 56 92.5548 54.8047 92.5548 53.3302V53.2968C92.5548 51.8223 91.3683 50.627 89.9047 50.627Z" fill="#F68C1F"/>
</g>
<defs>
<clipPath id="clip0_93_4962">
<rect width="96" height="56" fill="white"/>
</clipPath>
</defs>
</svg>
